<?xml version="1.0" encoding="utf-8"?>
<!-- Designed by Vexels.com - 2019 All Rights Reserved - https://vexels.com/terms-and-conditions/  -->
<svg version="1.1" id="Layer_1" xmlns="http://www.w3.org/2000/svg" xmlns:xlink="http://www.w3.org/1999/xlink" x="0px" y="0px"
	 viewBox="0 0 1200 1200" enable-background="new 0 0 1200 1200" xml:space="preserve">
<path fill="#2D2D2D" d="M1149.322,419.424c-3.667-39.687-52.159-70.241-89.02-55.873c-14.499,5.652-27.724,17.902-33.435,32.641
	c-1.564,4.038-4.317,25.053,5.183,22.944c4.22-0.937,10.279-15.95,13.238-18.809c14.938-14.437,47.645-13.91,59.49,4.088
	c9.249,14.053,12.669,31.816,1.298,46.27c-15.606,19.839-41.32,17.541-63.784,16.168c-20.623-1.261-41.177-8.301-60.52-15.432
	c-33.124-12.211-68.616-27.07-104.404-28.046c15.046-33.146,23.086-73.054,23.215-109.255c0.126-35.505-6.154-72.158-18.632-105.369
	c-11.308-30.097-30.693-61.796-55.228-82.9c-39.014-33.558-101.318-39.507-144.203-9.486c-27.259,19.082-43.402,54.651-75.56,66.461
	c-30.206,11.093-31.989-27.985-34.079-49.036c-2.121-21.361-7.003-42.304-30.961-48.251c-12.224-3.034-24.742,1.929-36.745,4.224
	c-4.047,0.774-14.483,3.629-18.226,0.733c-2.282-1.765-2.183-5.131-3.209-7.706c-3.772-9.464-10.482-13.01-18.148-5.086
	c-9.972,10.308-6.063,25.485,5.063,32.326c10.801,6.642,23.448,5.905,35.4,3.654c10.027-1.888,22.261-6.911,32.549-4.658
	c14.558,3.187,10.299,20.951,8.708,31.617c-2.13,14.269-4.096,28.914,0.884,42.86c5.35,14.982,17.349,29.299,30.45,38.145
	c22.549,15.227,51.999,6.931,73.288-6.936c38.149-24.85,89.15-89.372,138.042-48.721c32.704,27.192,35.927,83.41,35.729,122.227
	c-0.152,29.86-7.968,57.891-20.351,84.788c-8.932,19.401-20.247,35.332-34.711,50.93c-16.296,17.575-29.834,32.114-53.546,40.229
	c-23.703,8.112-40.384,10.283-60.302-6.326c-10.957-9.136-15.907-19.72-23.478-31.338c-6.303-9.673-15.928-15.939-24.56-23.236
	c-11.528-9.745-20.589-22.835-21.488-38.321c-0.886-15.269,5.325-30.654-1.458-45.413c-4.188-9.112-13.187-14.173-20.857-20.04
	c-9.73-7.444-14.508-16.572-19.567-27.428c-22.695-48.696-66.122-75.854-119.578-77.713c-41.123-1.43-88.017-2.324-124.868,17.954
	c-46.347,25.504-80.935,87.03-50.554,137.488c26.667,44.288,73.436,61.403,122.268,68.582c14.999,2.205,33.262,1.895,34.322,21.071
	c0.763,13.806-15.656,12.056-25.723,13.653c-8.467,1.343-17.776,2.395-25.539,6.091c-11.297,5.378-18.936,15.266-27.511,23.917
	c9.434-9.935-12.598-46.438-18.831-54.406c-14.331-18.32-39.639-28.861-62.531-31.645c-39.662-4.825-85.221,29.091-105.821,60.457
	c-11.827,18.009-18.231,35.499-18.56,57.078c-0.535,35.075,21.05,74.968,53.677,89.23c27.02,11.811,62.263,12.266,90.264,3.79
	c-3.257,7.566-3.883,15.534-9.333,22.413c-7.548,9.527-16.546,10.689-27.905,9.949c-5.298-0.345-13.97-2.652-12.893,5.104
	c0.643,4.629,6.581,8.501,10.214,10.463c5.685,3.071,11.982,3.978,18.346,3.687c24.779-1.134,43.533-19.525,54.431-40.478
	c3.48-6.691,2.902-13.958,5.464-20.622c2.108-5.481,4.27-3.898,10.99-5.823c20.375-5.837,35.923-17.348,52.594-29.646
	c5.689-4.196,11.343-8.445,17.052-12.614c5.594-4.085,11.66-10.918,11.466-1.805c-0.291,13.67-14.882,29.913-23.112,39.217
	c-13.585,15.357-28.012,29.919-44.855,41.734c-15.95,11.188-33.314,20.434-50.256,29.979c-11.54,6.501-23.514,8.375-35.552,12.852
	c-17.259,6.42-30.935,22.334-45.208,33.367c-13.406,10.364-27.574,20.79-42.866,28.314c-18.865,9.282-52.321,5.344-57.388-19.294
	c-1.933-9.402,0.612-19.294,6.156-27c6.095-8.471,19.866-15.999,29.995-8.999c6.152,4.251,6.973,15.386,3.888,21.632
	c-1.941,3.931-6.74,6.302-1.345,9.691c10.382,6.521,23.526-7.85,25.34-16.827c4.999-24.737-18.824-43.78-41.815-43.853
	c-20.189-0.064-42.906,10.87-55.903,26.407c-17.673,21.129-17.455,48.171-5.234,71.971c20.334,39.601,71.523,43.174,109.304,31.953
	c7.807-2.319,15.983-4.541,23.197-8.374c-3.718,15.206,0.825,32.768,4.196,47.507c3.965,17.338,8.854,31.989,20.472,45.788
	c22.578,26.815,53.342,34.677,87.128,32.314c33.86-2.368,73.761-18.538,87.847-51.486c8.832-20.658,15.143-38.547,15.124-61.57
	c-0.025-30.357-8.176-57.921-23.882-83.838c31.42-23.607,64.595-42.208,88.426-74.765c-0.738,10.25,0.561,19.694-2.093,29.972
	c-3.074,11.905-8.586,23.328-13.171,34.733c-5.164,12.845-10.921,25.302-16.892,37.787c-17.7,37.009-32.984,78.655-27.47,120.256
	c9.055,68.316,99.18,114.533,77.002,188.585c-6.154,20.548-16.688,43.179-35.806,54.725c-11.053,6.675-23.355,9.898-36.216,8.943
	c-18.273-1.357-29.419-10.209-45.328-17.746c-12.3-5.827-16.748,0.19-9.138,10.843c5.298,7.415,11.661,12.154,18.955,17.23
	c9.088,6.325,18.191,13.424,29.446,15.552c8.626,1.631,19.042,0.52,27.799-0.615c89.691-11.626,122.119-127.113,84.343-198.736
	c-9.883-18.739-23.691-34.373-34.505-52.31c-14.008-23.236-13.941-47.177-5.13-72.402c14.479-41.452,52.092-71.719,69.155-112.104
	c3.533-8.362,5.386-17.164,7.71-25.908c-0.574,3.402,1.56,8.109,2.035,11.635c0.782,5.808,1.004,11.612,0.942,17.467
	c-0.166,15.479-1.962,31.081-3.551,46.476c-1.398,13.548-3.679,26.585-6.328,39.93c-6.292,31.701-12.686,64.239-13.125,96.676
	c-0.459,33.93,5.781,67.557,17.374,99.422c9.039,24.844,23.232,44.51,40.77,63.888c11.217,12.394,23.547,23.182,37.618,32.096
	c18.472,11.703,36.609,24.898,56.562,33.924c21.948,9.929,46.926,18.895,71.154,20.433c27.265,1.731,51.225-25.969,32.357-51.245
	c-4.241-5.682-10.452-9.108-16.609-12.312c-2.749-1.431-8.138-5.561-11.16-3.864c-6.031,3.389,2.273,10.541,4.885,13.146
	c3.282,3.274,6.763,6.158,8.776,10.487c6.78,14.582-10.247,21.504-22.167,21.521c-24.673,0.035-48.633-10.08-69.163-23.123
	c-31.056-19.731-53.627-58.156-62.151-93.303c-4.558-18.792-6.961-38.331-8.494-57.601c-1.474-18.522-3.756-38.33-0.631-56.873
	c7.737,19.064,25.535,37.626,39.465,52.607c18.984,20.417,48.686,31.899,75.76,36.247c28.06,4.507,57.289-5.845,73.383-30.783
	c11.629-18.019,21.157-48.282,19.868-70.444c-2.015-34.645-34.193-50.462-62.954-60.553c-15.972-5.604-38.899-10.141-47.704-26.214
	c-2.868-5.235-3.489-11.952,2.746-14.312c8.501-3.217,16.84,5.876,23.358,9.011c14.769,7.104,5.481-20.973-3.216-25.681
	c-13.398-7.254-32.402-5.447-42.921,5.811c-13.023,13.939-8.009,34.312,1.241,48.779c7.053,11.032,17.002,17.573,28.636,23.156
	c19.707,9.458,52.408,16.845,55.091,43.425c2.101,20.808-16.047,35.157-35.234,35.68c-21.076,0.574-35.685-12.36-46.577-29.178
	c-25.426-39.26-32.902-94.164-11.561-137.003c3.27-6.564,2.923-5.943,9.854-5.455c9.404,0.662,18.771,1.65,28.104,2.984
	c15.198,2.172,30.392,4.699,45.145,9.022c28.235,8.273,51.808,22.794,55.654,54.453c3.466,28.53,1.871,59.989,22.752,82.461
	c21.955,23.629,55.617,27.882,84.61,16.849c19.865-7.56,36.833-20.126,45.818-39.902c3.767-8.291,5.57-17.014,6.255-26.065
	c0.292-3.857,2.399-25.001-6.202-16.683c-2.449,2.368-4.303,11.719-6.367,15.195c-5.358,9.024-12.591,16.527-20.873,22.93
	c-10.46,8.086-23.063,15.029-36.702,13.892c-30.856-2.572-47.264-29.172-46.608-58.681c0.638-28.699,7.88-65.095-17.695-85.997
	c-5.892-4.816-12.505-8.997-18.804-13.286c9.288,1.98,19.418-0.106,28.641-1.352c15.41-2.082,29.768-5.181,44.438-10.284
	c21.807-7.586,41.648-20.402,54.153-40.29c17.509-27.847,21.929-62.059,0.895-89.496c-12.488-16.289-28.866-26.545-45.053-38.67
	c-11.562-8.66-24.954-16.327-34.575-27.229c-2.923-3.312-5.201-6.598-3.244-11.188c3.429-8.043,14.144-5.136,21.088-4.224
	c24.704,3.244,49.607,7.96,73.337,15.655c32.382,10.501,60.88,25.418,96.246,22.594c29.737-2.374,59.244-14.159,72.678-42.805
	C1148.967,460.889,1151.326,437.806,1149.322,419.424z M269.339,496.931c-2.055,15.009-8.163,29.925-5.977,45.241
	c-6.813-1.453-16.358,2.254-23.192,3.201c-10.393,1.439-19.864,0.76-29.681-3.048c-8.599-3.335-18.075-6.73-25.968-11.5
	c-12.201-7.373-15.316-21.28-13.819-34.871c3.208-29.129,42.586-39.378,66.65-41.493
	C264.484,452.076,272.136,473.358,269.339,496.931z M345.169,783.306c-2.045,20.392-23.711,46.199-46.7,40.181
	c-19.186-5.022-34.893-26.975-30.231-46.695c4.479-18.943,30.713-37.832,48.656-43.608c2.548-0.82,7.36-2.352,10.26-2.299
	c5.414,0.099,5.719,2.219,8.448,7.169C343.147,751.739,346.893,767.622,345.169,783.306z M877.997,572.268
	c9.197,11.589,14.641,21.38,5.846,35.304c-6.909,10.938-21.603,14.254-33.601,14.999c-12.747,0.791-25.728-1.447-37.697-5.684
	c-19.25-6.814-32.99-16.585-47.564-30.486c-10.699-10.205-19.3-21.89-29.685-32.278c25.231-5.211,59.05-9.02,75.149-32.248
	c5.026,7.958,15.806,12.471,23.293,17.853c4.563,3.28,9.079,6.573,13.805,9.627C857.919,556.059,870.432,562.328,877.997,572.268z"
	/>
</svg>
